<?xml version="1.0" encoding="utf-8"?>
<!-- Generator: Adobe Illustrator 16.0.0, SVG Export Plug-In . SVG Version: 6.00 Build 0)  -->
<!DOCTYPE svg PUBLIC "-//W3C//DTD SVG 1.1//EN" "http://www.w3.org/Graphics/SVG/1.1/DTD/svg11.dtd">
<svg version="1.1" id="Слой_1" xmlns="http://www.w3.org/2000/svg" xmlns:xlink="http://www.w3.org/1999/xlink" x="0px" y="0px"
	 width="187.816px" height="68.844px" viewBox="0 0 187.816 68.844" enable-background="new 0 0 187.816 68.844"
	 xml:space="preserve">
<g>
	<defs>
		<rect id="SVGID_1_" y="0" width="187.816" height="68.844"/>
	</defs>
	<clipPath id="SVGID_2_">
		<use xlink:href="#SVGID_1_"  overflow="visible"/>
	</clipPath>
	<path clip-path="url(#SVGID_2_)" fill="#8DC63F" d="M80.623,18.441h2.682c0.732,0,1.337,0.528,1.337,1.173v12.894h9.379
		c0.74,0,1.341-0.527,1.341-1.174v-9.376c0-1.934,1.81-3.517,4.021-3.517h2.678c0.74,0,1.342,0.528,1.342,1.173v30.478
		c0,1.934-1.81,3.518-4.02,3.518h-2.683c-0.735,0-1.338-0.529-1.338-1.173V38.369h-9.38c-0.738,0-1.34,0.526-1.34,1.174v10.549
		c0,1.934-1.808,3.518-4.019,3.518h-2.681c-0.738,0-1.339-0.529-1.339-1.173V21.958C76.603,20.024,78.412,18.441,80.623,18.441"/>
	<path clip-path="url(#SVGID_2_)" fill="#8DC63F" d="M148.959,18.441h6.698c0.738,0,1.341,0.528,1.341,1.173v30.478
		c0,1.932-1.81,3.518-4.021,3.518H150.3c-0.737,0-1.341-0.529-1.341-1.173v-9.378h-6.7c-0.736,0-1.34,0.526-1.34,1.171v5.862
		c0,1.934-1.809,3.518-4.02,3.518h-2.681c-0.737,0-1.339-0.529-1.339-1.173V30.164c0-6.474,6.001-11.723,13.397-11.723H148.959z
		 M140.919,30.164v7.032h6.7c0.736,0,1.34-0.524,1.34-1.172V24.303h-1.34C143.919,24.303,140.919,26.926,140.919,30.164"/>
	<path clip-path="url(#SVGID_2_)" fill="#8DC63F" d="M123.499,26.686v23.406c0,1.934-1.809,3.518-4.019,3.518h-2.68
		c-0.738,0-1.341-0.529-1.341-1.173V25.513h-8.04c-0.737,0-1.339-0.526-1.339-1.17v-2.386c0-1.933,1.809-3.516,4.019-3.516h21.44
		c0.734,0,1.34,0.528,1.34,1.173v1.173c0,1.932-1.81,4.726-4.02,4.726h-4.019C124.104,25.513,123.499,26.041,123.499,26.686"/>
	<path clip-path="url(#SVGID_2_)" fill="#8DC63F" d="M165.037,18.441h2.683c0.735,0,1.338,0.528,1.338,1.173v12.894h9.378
		c0.737,0,1.342-0.527,1.342-1.174v-9.376c0-1.934,1.81-3.517,4.019-3.517h2.679c0.739,0,1.341,0.528,1.341,1.173v30.478
		c0,1.934-1.808,3.518-4.02,3.518h-2.678c-0.739,0-1.341-0.529-1.341-1.173V38.369h-9.381c-0.738,0-1.339,0.526-1.339,1.174v10.549
		c0,1.934-1.81,3.518-4.021,3.518h-2.68c-0.735,0-1.34-0.529-1.34-1.173V21.958C161.018,20.024,162.827,18.441,165.037,18.441"/>
	<path clip-path="url(#SVGID_2_)" fill="#8DC63F" d="M49.803,53.608h-2.68c-0.735,0-1.34-0.528-1.34-1.173V21.958
		c0-1.933,1.811-3.517,4.02-3.517h2.681c0.735,0,1.339,0.528,1.339,1.173v18.683l11.258-18.096c0.686-1.103,2.046-1.76,3.481-1.76
		h2.681c0.736,0,1.34,0.528,1.34,1.173v30.478c0,1.933-1.808,3.517-4.021,3.517h-2.679c-0.738,0-1.341-0.528-1.341-1.173V33.753
		L53.284,51.85C52.597,52.953,51.239,53.608,49.803,53.608"/>
	<path clip-path="url(#SVGID_2_)" fill="#8DC63F" d="M29.348,19.266c-2.231-1.359-7.139-0.134-7.139-0.134
		c-4.035,1.192-5.655,1.186-9.691,0c0,0-4.929-1.225-7.171,0.134c0,0-5.154,2.045-5.231,7.626c0,0-1.274,7.551,4.633,18.98
		c0,0,3.438,6.742,7.769,7.544c0,0,1.721,0.278,1.721-2.172c0,0-1.728-7.209-0.084-8.714c0,0,1.201-1.051,3.219-1.011
		c1.723-0.04,3.216,1.011,3.216,1.011c1.636,1.505-0.09,8.714-0.09,8.714c0,2.45,1.709,2.172,1.709,2.172
		c4.319-0.802,7.735-7.544,7.735-7.544c5.874-11.43,4.612-18.98,4.612-18.98C34.483,21.311,29.348,19.266,29.348,19.266
		 M17.034,17.935c-0.885-0.008-4.564-0.503-7.021-3.303c-1.799-2.053-2.351-4.846-2.518-6.449C7.462,7.86,7.457,6.835,7.457,6.835
		S8.364,7.04,8.682,7.108c1.503,0.306,4.032,1.107,5.801,3.123c0.881,1.01,1.464,3.181,1.849,4.317
		c0.073,0.218,0.28,0.351,0.51,0.336c0.227-0.017,0.412-0.183,0.451-0.409c0.417-2.379,1.351-6.29,3.407-8.701
		c3.205-3.764,8.227-5.206,10.494-5.687C31.503,0.021,32.395,0,32.395,0s0.006,0.766,0,1.08c-0.048,2.257-0.541,7.229-3.725,10.966
		C24.684,16.728,18.438,17.945,17.034,17.935"/>
	<polygon clip-path="url(#SVGID_2_)" fill="#58595B" points="10.347,68.844 9.454,68.844 9.315,67.69 4.767,67.69 4.767,61.233 
		6.031,61.233 6.031,66.565 8.253,66.565 8.253,61.233 9.517,61.233 9.517,66.565 10.347,66.565 	"/>
	<polygon clip-path="url(#SVGID_2_)" fill="#58595B" points="11.151,61.233 14.979,61.233 14.979,62.358 12.415,62.358 
		12.415,63.862 14.749,63.862 14.749,64.988 12.415,64.988 12.415,66.565 15.026,66.565 15.026,67.69 11.151,67.69 	"/>
	<polygon clip-path="url(#SVGID_2_)" fill="#58595B" points="19.684,64.987 17.322,64.987 17.322,67.69 16.058,67.69 16.058,61.233 
		17.322,61.233 17.322,63.862 19.684,63.862 19.684,61.233 20.948,61.233 20.948,67.69 19.684,67.69 	"/>
	<polygon clip-path="url(#SVGID_2_)" fill="#58595B" points="26.74,62.358 24.859,62.358 24.859,67.69 23.595,67.69 23.595,62.358 
		21.704,62.358 21.704,61.233 26.74,61.233 	"/>
	<path clip-path="url(#SVGID_2_)" fill="#58595B" d="M29.37,62.229c-0.124,0-0.24,0.005-0.352,0.016
		c-0.111,0.008-0.199,0.019-0.267,0.03v2.095c0.025,0.007,0.062,0.013,0.11,0.019c0.05,0.006,0.103,0.011,0.157,0.013
		c0.057,0.004,0.11,0.006,0.161,0.006h0.116c0.167,0,0.33-0.015,0.494-0.046c0.163-0.031,0.308-0.088,0.438-0.171
		c0.129-0.084,0.232-0.198,0.309-0.347c0.077-0.146,0.116-0.341,0.116-0.581c0-0.203-0.037-0.37-0.111-0.503
		c-0.074-0.131-0.171-0.237-0.29-0.317c-0.121-0.08-0.258-0.136-0.411-0.167C29.686,62.245,29.529,62.229,29.37,62.229
		 M27.487,61.298c0.259-0.049,0.543-0.087,0.855-0.114c0.309-0.027,0.618-0.042,0.925-0.042c0.32,0,0.642,0.026,0.964,0.078
		c0.324,0.052,0.613,0.157,0.872,0.314c0.258,0.156,0.469,0.375,0.632,0.654s0.244,0.645,0.244,1.094
		c0,0.405-0.069,0.748-0.212,1.028c-0.14,0.279-0.329,0.509-0.562,0.688c-0.234,0.178-0.499,0.307-0.798,0.387
		c-0.299,0.08-0.607,0.119-0.926,0.119h-0.148c-0.068,0-0.139,0-0.213-0.003c-0.074-0.003-0.147-0.009-0.216-0.015
		c-0.071-0.006-0.122-0.013-0.153-0.019v2.223h-1.264V61.298z"/>
	<path clip-path="url(#SVGID_2_)" fill="#58595B" d="M37.837,61.233h1.264v6.457h-1.264V61.233z M34.665,66.658
		c0.35,0,0.634-0.081,0.853-0.244c0.218-0.164,0.327-0.436,0.327-0.817c0-0.203-0.031-0.369-0.093-0.498
		c-0.061-0.129-0.144-0.229-0.248-0.304c-0.105-0.074-0.228-0.124-0.37-0.152c-0.14-0.027-0.295-0.042-0.461-0.042
		c-0.086,0-0.188,0.007-0.303,0.023c-0.118,0.015-0.201,0.031-0.25,0.05v1.929c0.067,0.019,0.149,0.031,0.245,0.041
		C34.46,66.653,34.56,66.658,34.665,66.658 M32.856,61.233h1.264v2.315c0.067-0.012,0.174-0.027,0.323-0.046
		c0.147-0.019,0.292-0.027,0.433-0.027c0.307,0,0.601,0.03,0.881,0.091c0.28,0.063,0.524,0.172,0.734,0.328
		c0.208,0.157,0.375,0.369,0.498,0.637c0.123,0.268,0.183,0.604,0.183,1.011c0,0.75-0.217,1.311-0.654,1.684
		c-0.436,0.372-1.085,0.558-1.946,0.558c-0.087,0-0.198-0.002-0.331-0.005c-0.136-0.004-0.283-0.012-0.439-0.023
		c-0.157-0.012-0.319-0.027-0.484-0.045c-0.167-0.02-0.32-0.046-0.462-0.083V61.233z"/>
	<polygon clip-path="url(#SVGID_2_)" fill="#58595B" points="46.5,64.112 46.573,63.272 46.526,63.272 46.094,64.14 43.686,67.691 
		42.736,67.691 42.736,61.234 44,61.234 44,64.748 43.907,65.615 43.962,65.615 44.415,64.721 46.822,61.234 47.764,61.234 
		47.764,67.691 46.5,67.691 	"/>
	<polygon clip-path="url(#SVGID_2_)" fill="#58595B" points="53.98,64.343 54.118,63.06 54.064,63.06 53.666,64.094 52.292,66.501 
		51.885,66.501 50.437,64.085 50.032,63.06 49.986,63.06 50.169,64.333 50.169,67.691 48.971,67.691 48.971,61.233 50.125,61.233 
		51.849,64.186 52.153,64.924 52.19,64.924 52.467,64.168 54.1,61.233 55.244,61.233 55.244,67.691 53.98,67.691 	"/>
	<polygon clip-path="url(#SVGID_2_)" fill="#58595B" points="59.966,62.358 57.707,62.358 57.707,67.69 56.443,67.69 56.443,61.233 
		61.23,61.233 61.23,67.69 59.966,67.69 	"/>
	<path clip-path="url(#SVGID_2_)" fill="#58595B" d="M65.805,62.358h-1.374c-0.024,0.584-0.052,1.117-0.083,1.598
		c-0.031,0.479-0.072,0.911-0.124,1.296c-0.052,0.383-0.122,0.723-0.208,1.018c-0.086,0.296-0.197,0.552-0.332,0.767
		c-0.086,0.141-0.184,0.259-0.29,0.35c-0.109,0.093-0.221,0.167-0.338,0.222c-0.116,0.056-0.231,0.095-0.346,0.116
		c-0.113,0.021-0.219,0.031-0.318,0.031c-0.142,0-0.26-0.01-0.355-0.031c-0.095-0.021-0.189-0.054-0.281-0.097l0.139-1.089
		c0.036,0.012,0.073,0.021,0.109,0.027c0.037,0.007,0.075,0.01,0.112,0.01c0.098,0,0.195-0.025,0.291-0.074
		c0.095-0.049,0.175-0.132,0.243-0.249c0.093-0.135,0.173-0.333,0.241-0.595c0.067-0.262,0.127-0.596,0.18-1.001
		c0.051-0.405,0.093-0.891,0.124-1.452c0.031-0.564,0.051-1.221,0.065-1.971h3.809v6.457h-1.264V62.358z"/>
	<path clip-path="url(#SVGID_2_)" fill="#58595B" d="M69.791,65.247h1.384l-0.481-1.438l-0.192-1.017h-0.047l-0.192,1.025
		L69.791,65.247z M71.451,66.262h-1.983l-0.489,1.43h-1.263l2.324-6.504h0.932l2.325,6.504h-1.329L71.451,66.262z"/>
	<polygon clip-path="url(#SVGID_2_)" fill="#58595B" points="77.567,64.987 75.206,64.987 75.206,67.69 73.942,67.69 73.942,61.233 
		75.206,61.233 75.206,63.862 77.567,63.862 77.567,61.233 78.831,61.233 78.831,67.69 77.567,67.69 	"/>
	<polygon clip-path="url(#SVGID_2_)" fill="#58595B" points="84.625,62.358 82.743,62.358 82.743,67.69 81.479,67.69 81.479,62.358 
		79.587,62.358 79.587,61.233 84.625,61.233 	"/>
	<path clip-path="url(#SVGID_2_)" fill="#58595B" d="M86.173,65.247h1.384l-0.481-1.438l-0.192-1.017h-0.046l-0.194,1.025
		L86.173,65.247z M87.834,66.262h-1.983l-0.491,1.43h-1.263l2.325-6.504h0.932l2.325,6.504h-1.327L87.834,66.262z"/>
	<polygon clip-path="url(#SVGID_2_)" fill="#58595B" points="95.905,68.844 95.012,68.844 94.873,67.69 90.325,67.69 90.325,61.233 
		91.589,61.233 91.589,66.565 93.811,66.565 93.811,61.233 95.075,61.233 95.075,66.565 95.905,66.565 	"/>
	<polygon clip-path="url(#SVGID_2_)" fill="#58595B" points="100.472,64.112 100.545,63.272 100.499,63.272 100.066,64.14 
		97.658,67.691 96.707,67.691 96.707,61.234 97.973,61.234 97.973,64.748 97.879,65.615 97.936,65.615 98.386,64.721 
		100.794,61.234 101.735,61.234 101.735,67.691 100.472,67.691 	"/>
	<polygon clip-path="url(#SVGID_2_)" fill="#58595B" points="106.708,64.112 106.78,63.272 106.734,63.272 106.302,64.14 
		103.894,67.691 102.943,67.691 102.943,61.234 104.208,61.234 104.208,64.748 104.114,65.615 104.171,65.615 104.624,64.721 
		107.029,61.234 107.972,61.234 107.972,67.691 106.708,67.691 	"/>
	<polygon clip-path="url(#SVGID_2_)" fill="#58595B" points="115.369,64.112 115.442,63.272 115.396,63.272 114.964,64.14 
		112.556,67.691 111.604,67.691 111.604,61.234 112.87,61.234 112.87,64.748 112.777,65.615 112.833,65.615 113.283,64.721 
		115.691,61.234 116.633,61.234 116.633,67.691 115.369,67.691 	"/>
	<path clip-path="url(#SVGID_2_)" fill="#58595B" d="M124.521,67.427c-0.197,0.14-0.447,0.241-0.752,0.302
		c-0.306,0.061-0.617,0.091-0.937,0.091c-0.388,0-0.755-0.059-1.102-0.18c-0.35-0.119-0.654-0.313-0.918-0.58
		c-0.267-0.268-0.477-0.615-0.634-1.043c-0.155-0.427-0.233-0.945-0.233-1.554c0-0.634,0.088-1.164,0.263-1.592
		c0.174-0.427,0.402-0.771,0.682-1.032c0.279-0.263,0.593-0.45,0.938-0.563c0.343-0.113,0.688-0.171,1.033-0.171
		c0.368,0,0.681,0.025,0.936,0.074s0.466,0.107,0.631,0.175l-0.248,1.07c-0.142-0.068-0.309-0.117-0.504-0.148
		c-0.191-0.03-0.428-0.046-0.706-0.046c-0.509,0-0.921,0.183-1.229,0.546c-0.312,0.363-0.466,0.928-0.466,1.692
		c0,0.332,0.036,0.635,0.11,0.91c0.073,0.273,0.186,0.508,0.336,0.702c0.151,0.193,0.338,0.345,0.563,0.453
		c0.225,0.107,0.484,0.161,0.779,0.161c0.276,0,0.511-0.027,0.7-0.083c0.191-0.056,0.357-0.126,0.499-0.212L124.521,67.427z"/>
	<polygon clip-path="url(#SVGID_2_)" fill="#58595B" points="129.926,62.358 128.043,62.358 128.043,67.69 126.78,67.69 
		126.78,62.358 124.889,62.358 124.889,61.233 129.926,61.233 	"/>
	<path clip-path="url(#SVGID_2_)" fill="#58595B" d="M131.438,64.463c0,0.325,0.029,0.625,0.083,0.899
		c0.057,0.272,0.142,0.509,0.253,0.705c0.115,0.196,0.262,0.352,0.44,0.462c0.178,0.109,0.389,0.166,0.635,0.166
		c0.45,0,0.796-0.176,1.042-0.525c0.247-0.353,0.37-0.92,0.37-1.707c0-0.314-0.025-0.606-0.079-0.877
		c-0.052-0.271-0.133-0.507-0.244-0.71c-0.109-0.203-0.255-0.362-0.433-0.477c-0.178-0.112-0.397-0.17-0.656-0.17
		c-0.448,0-0.797,0.181-1.042,0.54C131.561,63.13,131.438,63.694,131.438,64.463 M130.11,64.463c0-1.077,0.236-1.906,0.71-2.486
		c0.474-0.582,1.15-0.872,2.028-0.872c0.462,0,0.866,0.08,1.21,0.24c0.344,0.159,0.629,0.388,0.858,0.682
		c0.226,0.296,0.396,0.649,0.507,1.062s0.165,0.871,0.165,1.375c0,1.076-0.238,1.904-0.714,2.485
		c-0.479,0.582-1.153,0.872-2.026,0.872c-0.468,0-0.872-0.08-1.216-0.24c-0.345-0.159-0.629-0.388-0.853-0.683
		c-0.227-0.295-0.395-0.648-0.505-1.061S130.11,64.967,130.11,64.463"/>
	<polygon clip-path="url(#SVGID_2_)" fill="#58595B" points="141.595,64.343 141.733,63.06 141.678,63.06 141.28,64.094 
		139.907,66.501 139.5,66.501 138.053,64.085 137.647,63.06 137.601,63.06 137.784,64.333 137.784,67.691 136.586,67.691 
		136.586,61.233 137.739,61.233 139.464,64.186 139.769,64.924 139.806,64.924 140.082,64.168 141.715,61.233 142.858,61.233 
		142.858,67.691 141.595,67.691 	"/>
	<path clip-path="url(#SVGID_2_)" fill="#58595B" d="M145.58,65.247h1.384l-0.48-1.438l-0.193-1.017h-0.047l-0.193,1.025
		L145.58,65.247z M147.239,66.262h-1.98l-0.492,1.43h-1.263l2.325-6.504h0.93l2.326,6.504h-1.328L147.239,66.262z"/>
	<polygon clip-path="url(#SVGID_2_)" fill="#58595B" points="153.596,62.358 151.713,62.358 151.713,67.69 150.451,67.69 
		150.451,62.358 148.561,62.358 148.561,61.233 153.596,61.233 	"/>
	<path clip-path="url(#SVGID_2_)" fill="#58595B" d="M155.108,64.463c0,0.325,0.027,0.625,0.083,0.899
		c0.056,0.272,0.141,0.509,0.254,0.705s0.26,0.352,0.438,0.462c0.179,0.109,0.39,0.166,0.637,0.166c0.447,0,0.796-0.176,1.042-0.525
		c0.245-0.353,0.368-0.92,0.368-1.707c0-0.314-0.025-0.606-0.078-0.877s-0.134-0.507-0.245-0.71
		c-0.109-0.203-0.254-0.362-0.432-0.477c-0.179-0.112-0.398-0.17-0.655-0.17c-0.45,0-0.797,0.181-1.044,0.54
		C155.231,63.13,155.108,63.694,155.108,64.463 M153.78,64.463c0-1.077,0.236-1.906,0.711-2.486
		c0.474-0.582,1.149-0.872,2.029-0.872c0.461,0,0.863,0.08,1.207,0.24c0.346,0.159,0.631,0.388,0.859,0.682
		c0.227,0.296,0.396,0.649,0.507,1.062s0.166,0.871,0.166,1.375c0,1.076-0.238,1.904-0.714,2.485
		c-0.478,0.582-1.153,0.872-2.025,0.872c-0.468,0-0.874-0.08-1.219-0.24c-0.344-0.159-0.627-0.388-0.852-0.683
		c-0.227-0.295-0.394-0.648-0.505-1.061C153.837,65.425,153.78,64.967,153.78,64.463"/>
	<path clip-path="url(#SVGID_2_)" fill="#58595B" d="M163.475,62.358h-1.373c-0.024,0.584-0.053,1.117-0.083,1.598
		c-0.031,0.479-0.072,0.911-0.124,1.296c-0.055,0.383-0.122,0.723-0.208,1.018c-0.088,0.296-0.197,0.552-0.332,0.767
		c-0.086,0.141-0.185,0.259-0.29,0.35c-0.107,0.093-0.221,0.167-0.338,0.222c-0.116,0.056-0.231,0.095-0.347,0.116
		c-0.112,0.021-0.219,0.031-0.317,0.031c-0.142,0-0.261-0.01-0.355-0.031s-0.188-0.054-0.281-0.097l0.14-1.089
		c0.036,0.012,0.072,0.021,0.108,0.027c0.037,0.007,0.076,0.01,0.112,0.01c0.098,0,0.195-0.025,0.291-0.074
		c0.093-0.049,0.175-0.132,0.243-0.249c0.092-0.135,0.173-0.333,0.241-0.595c0.066-0.262,0.127-0.596,0.18-1.001
		c0.051-0.405,0.093-0.891,0.124-1.452c0.031-0.564,0.052-1.221,0.063-1.971h3.811v6.457h-1.265V62.358z"/>
	<path clip-path="url(#SVGID_2_)" fill="#58595B" d="M167.063,64.463c0,0.325,0.028,0.625,0.083,0.899
		c0.057,0.272,0.141,0.509,0.253,0.705c0.114,0.196,0.261,0.352,0.439,0.462c0.177,0.109,0.39,0.166,0.636,0.166
		c0.449,0,0.797-0.176,1.043-0.525c0.245-0.353,0.368-0.92,0.368-1.707c0-0.314-0.025-0.606-0.078-0.877
		c-0.052-0.271-0.134-0.507-0.244-0.71s-0.256-0.362-0.433-0.477c-0.18-0.112-0.396-0.17-0.656-0.17
		c-0.447,0-0.797,0.181-1.043,0.54C167.187,63.13,167.063,63.694,167.063,64.463 M165.735,64.463c0-1.077,0.236-1.906,0.711-2.486
		c0.474-0.582,1.148-0.872,2.028-0.872c0.461,0,0.864,0.08,1.209,0.24c0.344,0.159,0.63,0.388,0.858,0.682
		c0.226,0.296,0.396,0.649,0.505,1.062c0.112,0.412,0.168,0.871,0.168,1.375c0,1.076-0.238,1.904-0.715,2.485
		c-0.477,0.582-1.152,0.872-2.025,0.872c-0.467,0-0.873-0.08-1.219-0.24c-0.342-0.159-0.626-0.388-0.851-0.683
		c-0.227-0.295-0.394-0.648-0.503-1.061C165.791,65.425,165.735,64.967,165.735,64.463"/>
	<polygon clip-path="url(#SVGID_2_)" fill="#58595B" points="175.966,62.358 173.476,62.358 173.476,67.69 172.211,67.69 
		172.211,61.233 175.966,61.233 	"/>
	<polygon clip-path="url(#SVGID_2_)" fill="#58595B" points="180.291,64.112 180.366,63.272 180.319,63.272 179.888,64.14 
		177.479,67.691 176.527,67.691 176.527,61.234 177.793,61.234 177.793,64.748 177.699,65.615 177.755,65.615 178.207,64.721 
		180.613,61.234 181.556,61.234 181.556,67.691 180.291,67.691 	"/>
	<polygon clip-path="url(#SVGID_2_)" fill="#58595B" points="186.527,64.112 186.6,63.272 186.554,63.272 186.122,64.14 
		183.714,67.691 182.763,67.691 182.763,61.234 184.027,61.234 184.027,64.748 183.936,65.615 183.991,65.615 184.443,64.721 
		186.85,61.234 187.792,61.234 187.792,67.691 186.527,67.691 	"/>
</g>
</svg>
